<svg width="148" height="72" viewBox="0 0 148 72" fill="none" xmlns="http://www.w3.org/2000/svg">
<rect x="0.5" y="0.5" width="147" height="71" rx="3.5" fill="#F8F8F8" stroke="#D5D5D5" stroke-dasharray="3 3"/>
<path d="M23.5585 40.2696H15.8653L21.3652 32.2696H25.0585L23.5585 40.2696ZM20.6652 30.9363L13.332 41.6029H24.6652L26.6651 30.9363H20.6652ZM21.6652 34.2696C20.7452 34.2696 19.9986 35.0163 19.9986 35.9363C19.9986 36.8563 20.7452 37.6029 21.6652 37.6029C22.5852 37.6029 23.3319 36.8563 23.3319 35.9363C23.3319 35.0163 22.5852 34.2696 21.6652 34.2696Z" fill="#BDBDBD"/>
<rect width="3.92444" height="89.9995" rx="1" transform="matrix(-2.13062e-06 1 -1 1.22313e-06 130 28)" fill="#4DBCDD"/>
<rect width="3.92443" height="73.4667" rx="1" transform="matrix(-5.37549e-06 1 -1 3.31928e-06 113.475 33.8862)" fill="#BDBDBD"/>
<rect width="3.92441" height="58.7723" rx="1" transform="matrix(-2.10656e-06 1 -1 1.21521e-06 98.7793 39.7737)" fill="#E6E6E6"/>
</svg>
