<svg width="148" height="72" viewBox="0 0 148 72" fill="none" xmlns="http://www.w3.org/2000/svg">
<rect x="0.5" y="0.5" width="147" height="71" rx="3.5" fill="#F8F8F8" stroke="#D5D5D5" stroke-dasharray="3 3"/>
<g clip-path="url(#clip0_124_1016)">
<path d="M27.0738 40.6599L21.0205 34.6066C21.6405 33.0466 21.3205 31.2066 20.0605 29.9399C18.5271 28.4066 16.1405 28.2666 14.4405 29.5066L17.0005 32.0732L16.0538 33.0132L13.5005 30.4599C12.2605 32.1532 12.4005 34.5466 13.9338 36.0732C15.1738 37.3132 16.9805 37.6399 18.5271 37.0599L24.6005 43.1332C24.8605 43.3932 25.2805 43.3932 25.5405 43.1332L27.0738 41.5999C27.3405 41.3466 27.3405 40.9266 27.0738 40.6599ZM25.0738 41.7266L18.7671 35.4199C18.3605 35.7199 17.9071 35.8999 17.4338 35.9666C16.5271 36.0999 15.5738 35.8266 14.8805 35.1332C14.2471 34.5066 13.9538 33.6666 14.0005 32.8399L16.0605 34.8999L18.8871 32.0732L16.8271 30.0132C17.6538 29.9666 18.4871 30.2599 19.1205 30.8866C19.8405 31.6066 20.1138 32.5999 19.9471 33.5266C19.8671 33.9999 19.6671 34.4399 19.3605 34.8332L25.6605 41.1332L25.0738 41.7266Z" fill="#BDBDBD"/>
</g>
<rect width="3.92444" height="38.9623" rx="1" transform="matrix(-9.50836e-07 1 -1 2.88197e-06 78.9629 28)" fill="#4DBCDD"/>
<rect width="3.92443" height="31.8049" rx="1" transform="matrix(-2.35559e-06 1 -1 7.7239e-06 71.8086 33.8862)" fill="#BDBDBD"/>
<rect width="3.92441" height="25.4435" rx="1" transform="matrix(-9.40419e-07 1 -1 2.86369e-06 65.4453 39.7737)" fill="#E6E6E6"/>
<rect width="3.92444" height="38.9623" rx="1" transform="matrix(-9.50836e-07 1 -1 2.88197e-06 130 28)" fill="#4DBCDD"/>
<rect width="3.92443" height="31.8049" rx="1" transform="matrix(-2.35559e-06 1 -1 7.7239e-06 122.846 33.8862)" fill="#BDBDBD"/>
<rect width="3.92441" height="25.4435" rx="1" transform="matrix(-9.40419e-07 1 -1 2.86369e-06 116.482 39.7737)" fill="#E6E6E6"/>
<defs>
<clipPath id="clip0_124_1016">
<rect width="16" height="16" fill="white" transform="translate(12 28)"/>
</clipPath>
</defs>
</svg>
